<svg height="511pt" viewBox="-61 0 511 511.88452" width="511pt" xmlns="http://www.w3.org/2000/svg"><path d="m386.207031 161.339844-54.464843 103.988281c-8.734376 16.613281-14.726563 34.53125-17.742188 53.054687-4.855469 31.515626-6.269531 61.792969-14.214844 90.660157-3.078125 12.3125-8.835937 23.796875-16.859375 33.632812v51.554688c-.03125 9.738281-7.917969 17.625-17.65625 17.652343h-141.242187c-9.738282-.027343-17.625-7.914062-17.652344-17.652343v-50.671875l.441406-.351563c-2.816406-3.792969-5.105468-7.949219-6.800781-12.359375-1.878906-4.894531-4.800781-9.324218-8.5625-12.976562l-85.800781-81.125c-3.347656-3.3125-5.222656-7.828125-5.210938-12.535156v-68.328126c0-9.613281 7.691406-17.460937 17.304688-17.652343 6.890625-.097657 13.707031 1.480469 19.859375 4.589843 2.464843 1.167969 4.800781 2.589844 6.976562 4.238282 11.113281 8.332031 17.652344 21.414062 17.652344 35.308594v8.828124c.019531 5.550782 2.632813 10.777344 7.0625 14.125l12.625 9.445313c4.765625 3.476563 10.257813 5.828125 16.066406 6.882813l22.246094-33.011719c2.457031-3.984375 3.1875-8.796875 2.027344-13.332031l-13.152344-52.433594c-1.265625-5.175782-5.25-9.25-10.398437-10.628906-5.144532-1.378907-10.636719.15625-14.316407 4.007812l-20.304687 21.007812c-9.042969 9.066407-23.53125 9.667969-33.292969 1.382813s-11.523437-22.679687-4.046875-33.074219l23.125-32.925781c2.304688-3.257813 5.628906-5.648437 9.449219-6.796875l47.402343-13.949219c12.523438-3.679687 25.863282 2.316407 31.425782 14.125l26.660156 56.320313c.359375.746094 1.191406 1.140625 1.996094.949218.804687-.191406 1.371094-.917968 1.359375-1.742187v-185.910156c-.246094-14.625 11.414062-26.679688 26.039062-26.925781 14.625-.242188 26.679688 11.417968 26.925781 26.042968l2.914063 195.175782c.054687 1.097656.914063 1.980468 2.007813 2.070312s2.082031-.644531 2.316406-1.714844l29.484375-136.652344 16.242187-71.414062c2.726563-14.238281 16.082032-23.875 30.453125-21.980469 7.167969 1.152344 13.542969 5.199219 17.632813 11.191407 4.089844 5.996093 5.535156 13.40625 3.996094 20.5l-40.695313 202.59375c-.117187.832031.371094 1.632812 1.164063 1.910156.792968.277344 1.671874-.042969 2.101562-.765625l49.171875-96.042969c6.066406-13.128906 21.253906-19.335938 34.78125-14.210938 6.679687 2.828126 11.90625 8.273438 14.457031 15.066407 2.554688 6.789062 2.210938 14.332031-.953125 20.859375zm0 0" fill="#fdd7ad"/><g fill="#cbb292"><path d="m300.28125 407.207031c-12.210938 42-28.132812 51.710938-44.722656 51.710938-4.875 0-8.828125-3.953125-8.828125-8.828125s3.953125-8.824219 8.828125-8.824219c10.238281.882813 20.269531-3.253906 26.90625-11.097656 5.96875-6.515625 17.816406-22.960938 17.816406-22.960938zm0 0"/><path d="m86.273438 413.015625c20.101562 32.847656 30.523437 45.902344 47.078124 45.902344 4.875 0 8.828126-3.953125 8.828126-8.828125s-3.953126-8.824219-8.828126-8.824219c-10.238281.882813-20.269531-3.253906-26.90625-11.097656-6.335937-6.160157-13.074218-11.890625-20.171874-17.152344zm0 0"/><path d="m256.441406 344.160156c-3.359375.019532-6.441406-1.875-7.945312-4.882812-12.78125-25.597656-56.882813-37.074219-72.800782-39.34375-3.121093-.445313-5.765624-2.527344-6.941406-5.453125-1.171875-2.929688-.695312-6.261719 1.253906-8.742188 1.949219-2.480469 5.074219-3.730469 8.195313-3.28125 2.703125.386719 66.59375 9.929688 86.097656 48.929688 1.363281 2.730469 1.21875 5.972656-.378906 8.570312-1.597656 2.601563-4.425781 4.191407-7.480469 4.203125zm0 0"/><path d="m212.304688 414.78125c-4.875 0-8.828126-3.953125-8.828126-8.828125 0-55.171875-38.207031-71.097656-38.59375-71.257813-2.992187-1.125-5.140624-3.785156-5.617187-6.945312-.472656-3.164062.796875-6.335938 3.324219-8.292969s5.917968-2.394531 8.859375-1.144531c2.015625.8125 49.683593 20.648438 49.683593 87.640625 0 4.875-3.953124 8.828125-8.828124 8.828125zm0 0"/></g></svg>